<svg id="Layer_1" data-name="Layer 1" xmlns="http://www.w3.org/2000/svg" viewBox="0 0 459.49 459.49"><defs><style>.cls-1{fill:#2b3278}.cls-2{fill:#fff}.cls-3{fill:#00b2ce}</style></defs><title>LCA_Logo</title><circle class="cls-1" cx="229.74" cy="229.74" r="229.74"/><path class="cls-2" d="M104.87 136.57l5.5-6.49L132 148.46l9.76-11.5 5.75 4.88-15.27 18zm39.33-12l-11.65-17.42 7.11-4.76 11.34 17c2.45 3.67 6.27 5.56 9.72 3.25 3.07-2 3.68-6.06.84-10.31l-11.33-17 7.07-4.72L168.94 108c5.21 7.79 4.15 15.86-3.81 21.18-7.36 4.95-15.39 3.68-20.93-4.61zm65.06-25.42c1.67 5.53-.73 10.7-8.1 12.93l-15.11 4.57-10.41-34.4 13-3.93c7.66-2.32 12.28-.33 13.88 5a8.16 8.16 0 0 1-2.69 9.12v.09c5.04-.19 8.17 2.36 9.43 6.62zm-21.53-5.6l3.83-1.15c2.42-.74 4-2.44 3.37-4.62-.59-1.94-2.41-2.87-5.65-1.89L185.74 87zm12.76 7c-.64-2.13-2.7-3.15-6.18-2.1l-4.66 1.41 2.2 7.27 4.65-1.41c3.01-.87 4.73-2.72 3.99-5.13zm46.44-2.84c.06 5.64-3.6 9.82-11.11 9.9l-15.42.17-.4-35.09 13.24-.14c7.81-.08 11.6 3 11.66 8.43a8 8 0 0 1-5 7.81v.1c4.78 1.23 6.98 4.47 7.03 8.82zm-18.65-11.12h3.91c2.47 0 4.43-1.18 4.41-3.41 0-2-1.47-3.34-4.78-3.31h-3.61zm10 10.07c0-2.17-1.67-3.68-5.23-3.65h-4.74l.08 7.42h4.74c3.1-.04 5.22-1.29 5.19-3.77zm20.81-6.01c3.22-10.34 12.7-15.4 23.19-12.13 10.24 3.19 15.38 12.58 12.1 23.12S281.54 117 271.29 113.8c-10.49-3.26-15.4-12.8-12.2-23.15zM286 99c1.79-5.75-.72-11.31-6-13s-10.67 1.56-12.43 7.21.67 11.29 6.14 13c5.29 1.71 10.48-1.49 12.29-7.21zm17.44 7.63c5.93-8.4 16.18-11.33 25.86-4.49a18.84 18.84 0 0 1 7.83 14l-8.13.71a11.13 11.13 0 0 0-4.34-8.15c-4.31-3-10.15-2.39-14 3-3.27 4.63-2.75 10.57 2 13.93a11 11 0 0 0 9.11 1.41l2 7.93a18.35 18.35 0 0 1-15.8-2.72c-8.07-5.69-11.39-15.9-4.53-25.62zm39.1 39.66l-4.14-.16-8.24 6.31-5.16-6.72 28.56-21.83 5.13 6.71-10.92 8.4.07.08 17.24-.12 6.49 8.48-20.19-.81-8.06 23.05-6.32-8.31 5.58-15zM370.07 186c10-2.21 19.58 2.53 22.13 14.1a18.79 18.79 0 0 1-3.66 15.63l-6.48-5a11.1 11.1 0 0 0 2.28-8.95c-1.14-5.14-5.89-8.6-12.37-7.18-5.54 1.22-9.16 6-7.91 11.65a11 11 0 0 0 5.79 7.18l-3.85 7.25a18.42 18.42 0 0 1-9.85-12.68c-2.15-9.67 2.3-19.46 13.92-22zm8.05 44.1c10.76 1.23 17.5 9.59 16.24 20.51-1.22 10.66-9.49 17.46-20.45 16.2s-17.48-9.75-16.26-20.41c1.25-10.91 9.75-17.53 20.47-16.3zm-3.21 28c6 .69 11-2.82 11.61-8.35.65-5.69-3.52-10.19-9.41-10.86s-11 2.77-11.62 8.45c-.63 5.49 3.51 10.04 9.42 10.72zm11.5 27.82l-5.2 11.32c-4.76 10.35-14.49 13.85-24.16 9.41s-13.43-13.69-8.57-24.28l5.27-11.45zm-30.84-.9c-2.58 5.61-.13 11.19 5.16 13.62 5.48 2.52 11.24.65 13.54-4.36l1.8-3.91-19-8.71zm8.81 41.62l-5.2 6.79-28.54-21.86 5.21-6.79zM324.5 366.1l-22.84-27.77 6.73-5.53 24.26 8L319 324.08l6.53-5.37 22.83 27.77-6.53 5.37-24.83-8.21 14 17.09zm-21.74-7.62c3.88 9.68.65 19.7-10 24a19.58 19.58 0 0 1-15.88-.55l3.71-6.94a12.12 12.12 0 0 0 9.26.1c4.7-1.89 7.24-7.11 4.75-13.31-2.17-5.4-7.32-8.46-13-6.2a12.38 12.38 0 0 0-5.1 3.74l1.53 3.8 6.39-2.56 2.65 6.62-13.95 5.61-6-15c2-3.54 6.44-7.33 11.61-9.41 9.64-3.87 19.67-.76 24.03 10.1zm-82.37 4.33l12.59.75 2.45-6.3 8.84.53-15.27 35.1-8.08-.48-11.12-36.66 8.84.52zm1.91 7.32l3.22 12.31h.1l4.61-11.84zm-21.3 1.7c-3.49 9.66-12.59 15.21-23.74 11.19A18.84 18.84 0 0 1 166 371.58l7.64-2.84a11.11 11.11 0 0 0 6.36 6.71c4.95 1.78 10.41-.39 12.66-6.63 1.93-5.33-.15-10.92-5.62-12.9a10.92 10.92 0 0 0-9.16 1.06l-4-7.11a18.39 18.39 0 0 1 15.95-1.57c9.32 3.37 15.23 12.34 11.17 23.53zm-50.36-38.35l10.1 7.55 5.51-3.91 7.1 5.31-32.08 20.9-6.49-4.85 10.92-36.73 7.09 5.3zm-2.44 7.15l-4.09 12.06.09.06 10.37-7.36zm-34.83-1.54L106 329c-6.71-9.2-5-19.41 3.59-25.67s18.51-5 25.37 4.37l7.43 10.18zm15.85-26.48c-3.64-5-9.71-5.58-14.41-2.14-4.87 3.54-6.06 9.48-2.8 13.94l2.53 3.48 16.86-12.29zM87.74 299l-8.18-22 7.07-2.64 5.29 14.19 6.45-2.4L94.2 275l7-2.6 4.17 11.2 6.12-2.28-5.65-15.18 7.07-2.63 8.55 23zm-14.48-81.12l35.94-.88.21 8.4-19.84.49v.1L103 233l.13 5.41-13 7.62v.1l19.79-.49.2 8.4-35.93.89-.21-8.5 18.78-10.44v-.1l-19.28-9.46zM84.58 172l16.19 17 15 4.37-2.39 8.22-15-4.37-22.78 5.65 2.7-9.29 13.18-2.7.06-.2-9.7-9.25z" transform="translate(-4.26 -4.26)"/><path class="cls-3" d="M234.34 334.67a101 101 0 0 1-53.75-186.54l7.92 12.57a86.16 86.16 0 1 0 91.67 0l7.92-12.57a101 101 0 0 1-53.76 186.54z" transform="translate(-4.26 -4.26)"/><path class="cls-3" d="M234 437.45c-112.18 0-203.45-91.27-203.45-203.45S121.82 30.55 234 30.55 437.45 121.82 437.45 234 346.18 437.45 234 437.45zm0-391.92C130.08 45.53 45.53 130.08 45.53 234S130.08 422.47 234 422.47 422.47 337.92 422.47 234 337.92 45.53 234 45.53z" transform="translate(-4.26 -4.26)"/><path class="cls-3" d="M230.41 128.5l4.96 15.27h16.06l-12.99 9.44 4.96 15.27-12.99-9.44-12.99 9.44 4.96-15.27-12.99-9.44h16.06l4.96-15.27z"/><path class="cls-2" d="M183.27 216.38h8.91v29.75H208V254h-24.73zm31.45 18.93c0-10.76 7-19.46 19.41-19.46a19.71 19.71 0 0 1 15.17 7.26l-6.52 5.52a11.65 11.65 0 0 0-8.65-4.35c-5.51 0-10.13 4.08-10.13 11 0 5.94 4 10.72 10.13 10.72a11.47 11.47 0 0 0 8.65-4.3l6.52 5.57a19.26 19.26 0 0 1-15.17 7.21c-10.39.03-19.41-6.7-19.41-19.17zM279 247.3h-13.21l-2.17 6.7h-9.28l13.79-37.65h8.49L290.51 254h-9.28zm-2.44-7.53l-4.14-12.68h-.1l-4.09 12.68z" transform="translate(-4.26 -4.26)"/></svg>